<mxfile host="app.diagrams.net" agent="Mozilla/5.0 (Windows NT 10.0; Win64; x64) AppleWebKit/537.36 (KHTML, like Gecko) Chrome/129.0.0.0 Safari/537.36" version="24.7.16">
  <diagram name="Page-1" id="986FrmDAkvEkOc2er4E9">
    <mxGraphModel dx="319" dy="182" grid="1" gridSize="10" guides="1" tooltips="1" connect="1" arrows="1" fold="1" page="1" pageScale="1" pageWidth="850" pageHeight="1100" math="0" shadow="0">
      <root>
        <mxCell id="0" />
        <mxCell id="1" parent="0" />
        <mxCell id="yhX_cp5Toq69qGJD3ayF-17" value="Employees" style="shape=table;startSize=25;container=1;collapsible=0;childLayout=tableLayout;fixedRows=1;rowLines=1;fontStyle=1;align=center;resizeLast=1;" vertex="1" parent="1">
          <mxGeometry x="531" y="20" width="125" height="201" as="geometry" />
        </mxCell>
        <mxCell id="yhX_cp5Toq69qGJD3ayF-18" style="shape=tableRow;horizontal=0;startSize=0;swimlaneHead=0;swimlaneBody=0;fillColor=none;collapsible=0;dropTarget=0;points=[[0,0.5],[1,0.5]];portConstraint=eastwest;top=0;left=0;right=0;bottom=0;" vertex="1" parent="yhX_cp5Toq69qGJD3ayF-17">
          <mxGeometry y="25" width="125" height="22" as="geometry" />
        </mxCell>
        <mxCell id="yhX_cp5Toq69qGJD3ayF-19" value="int" style="shape=partialRectangle;connectable=0;fillColor=none;top=0;left=0;bottom=0;right=0;align=left;spacingLeft=2;overflow=hidden;fontSize=11;" vertex="1" parent="yhX_cp5Toq69qGJD3ayF-18">
          <mxGeometry width="36" height="22" as="geometry">
            <mxRectangle width="36" height="22" as="alternateBounds" />
          </mxGeometry>
        </mxCell>
        <mxCell id="yhX_cp5Toq69qGJD3ayF-20" value="EmployeeID" style="shape=partialRectangle;connectable=0;fillColor=none;top=0;left=0;bottom=0;right=0;align=left;spacingLeft=2;overflow=hidden;fontSize=11;" vertex="1" parent="yhX_cp5Toq69qGJD3ayF-18">
          <mxGeometry x="36" width="89" height="22" as="geometry">
            <mxRectangle width="89" height="22" as="alternateBounds" />
          </mxGeometry>
        </mxCell>
        <mxCell id="yhX_cp5Toq69qGJD3ayF-21" style="shape=tableRow;horizontal=0;startSize=0;swimlaneHead=0;swimlaneBody=0;fillColor=none;collapsible=0;dropTarget=0;points=[[0,0.5],[1,0.5]];portConstraint=eastwest;top=0;left=0;right=0;bottom=0;" vertex="1" parent="yhX_cp5Toq69qGJD3ayF-17">
          <mxGeometry y="47" width="125" height="22" as="geometry" />
        </mxCell>
        <mxCell id="yhX_cp5Toq69qGJD3ayF-22" value="string" style="shape=partialRectangle;connectable=0;fillColor=none;top=0;left=0;bottom=0;right=0;align=left;spacingLeft=2;overflow=hidden;fontSize=11;" vertex="1" parent="yhX_cp5Toq69qGJD3ayF-21">
          <mxGeometry width="36" height="22" as="geometry">
            <mxRectangle width="36" height="22" as="alternateBounds" />
          </mxGeometry>
        </mxCell>
        <mxCell id="yhX_cp5Toq69qGJD3ayF-23" value="FirstName" style="shape=partialRectangle;connectable=0;fillColor=none;top=0;left=0;bottom=0;right=0;align=left;spacingLeft=2;overflow=hidden;fontSize=11;" vertex="1" parent="yhX_cp5Toq69qGJD3ayF-21">
          <mxGeometry x="36" width="89" height="22" as="geometry">
            <mxRectangle width="89" height="22" as="alternateBounds" />
          </mxGeometry>
        </mxCell>
        <mxCell id="yhX_cp5Toq69qGJD3ayF-24" style="shape=tableRow;horizontal=0;startSize=0;swimlaneHead=0;swimlaneBody=0;fillColor=none;collapsible=0;dropTarget=0;points=[[0,0.5],[1,0.5]];portConstraint=eastwest;top=0;left=0;right=0;bottom=0;" vertex="1" parent="yhX_cp5Toq69qGJD3ayF-17">
          <mxGeometry y="69" width="125" height="22" as="geometry" />
        </mxCell>
        <mxCell id="yhX_cp5Toq69qGJD3ayF-25" value="string" style="shape=partialRectangle;connectable=0;fillColor=none;top=0;left=0;bottom=0;right=0;align=left;spacingLeft=2;overflow=hidden;fontSize=11;" vertex="1" parent="yhX_cp5Toq69qGJD3ayF-24">
          <mxGeometry width="36" height="22" as="geometry">
            <mxRectangle width="36" height="22" as="alternateBounds" />
          </mxGeometry>
        </mxCell>
        <mxCell id="yhX_cp5Toq69qGJD3ayF-26" value="LastName" style="shape=partialRectangle;connectable=0;fillColor=none;top=0;left=0;bottom=0;right=0;align=left;spacingLeft=2;overflow=hidden;fontSize=11;" vertex="1" parent="yhX_cp5Toq69qGJD3ayF-24">
          <mxGeometry x="36" width="89" height="22" as="geometry">
            <mxRectangle width="89" height="22" as="alternateBounds" />
          </mxGeometry>
        </mxCell>
        <mxCell id="yhX_cp5Toq69qGJD3ayF-27" style="shape=tableRow;horizontal=0;startSize=0;swimlaneHead=0;swimlaneBody=0;fillColor=none;collapsible=0;dropTarget=0;points=[[0,0.5],[1,0.5]];portConstraint=eastwest;top=0;left=0;right=0;bottom=0;" vertex="1" parent="yhX_cp5Toq69qGJD3ayF-17">
          <mxGeometry y="91" width="125" height="22" as="geometry" />
        </mxCell>
        <mxCell id="yhX_cp5Toq69qGJD3ayF-28" value="string" style="shape=partialRectangle;connectable=0;fillColor=none;top=0;left=0;bottom=0;right=0;align=left;spacingLeft=2;overflow=hidden;fontSize=11;" vertex="1" parent="yhX_cp5Toq69qGJD3ayF-27">
          <mxGeometry width="36" height="22" as="geometry">
            <mxRectangle width="36" height="22" as="alternateBounds" />
          </mxGeometry>
        </mxCell>
        <mxCell id="yhX_cp5Toq69qGJD3ayF-29" value="Department" style="shape=partialRectangle;connectable=0;fillColor=none;top=0;left=0;bottom=0;right=0;align=left;spacingLeft=2;overflow=hidden;fontSize=11;" vertex="1" parent="yhX_cp5Toq69qGJD3ayF-27">
          <mxGeometry x="36" width="89" height="22" as="geometry">
            <mxRectangle width="89" height="22" as="alternateBounds" />
          </mxGeometry>
        </mxCell>
        <mxCell id="yhX_cp5Toq69qGJD3ayF-30" style="shape=tableRow;horizontal=0;startSize=0;swimlaneHead=0;swimlaneBody=0;fillColor=none;collapsible=0;dropTarget=0;points=[[0,0.5],[1,0.5]];portConstraint=eastwest;top=0;left=0;right=0;bottom=0;" vertex="1" parent="yhX_cp5Toq69qGJD3ayF-17">
          <mxGeometry y="113" width="125" height="22" as="geometry" />
        </mxCell>
        <mxCell id="yhX_cp5Toq69qGJD3ayF-31" value="string" style="shape=partialRectangle;connectable=0;fillColor=none;top=0;left=0;bottom=0;right=0;align=left;spacingLeft=2;overflow=hidden;fontSize=11;" vertex="1" parent="yhX_cp5Toq69qGJD3ayF-30">
          <mxGeometry width="36" height="22" as="geometry">
            <mxRectangle width="36" height="22" as="alternateBounds" />
          </mxGeometry>
        </mxCell>
        <mxCell id="yhX_cp5Toq69qGJD3ayF-32" value="JobTitle" style="shape=partialRectangle;connectable=0;fillColor=none;top=0;left=0;bottom=0;right=0;align=left;spacingLeft=2;overflow=hidden;fontSize=11;" vertex="1" parent="yhX_cp5Toq69qGJD3ayF-30">
          <mxGeometry x="36" width="89" height="22" as="geometry">
            <mxRectangle width="89" height="22" as="alternateBounds" />
          </mxGeometry>
        </mxCell>
        <mxCell id="yhX_cp5Toq69qGJD3ayF-33" style="shape=tableRow;horizontal=0;startSize=0;swimlaneHead=0;swimlaneBody=0;fillColor=none;collapsible=0;dropTarget=0;points=[[0,0.5],[1,0.5]];portConstraint=eastwest;top=0;left=0;right=0;bottom=0;" vertex="1" parent="yhX_cp5Toq69qGJD3ayF-17">
          <mxGeometry y="135" width="125" height="22" as="geometry" />
        </mxCell>
        <mxCell id="yhX_cp5Toq69qGJD3ayF-34" value="string" style="shape=partialRectangle;connectable=0;fillColor=none;top=0;left=0;bottom=0;right=0;align=left;spacingLeft=2;overflow=hidden;fontSize=11;" vertex="1" parent="yhX_cp5Toq69qGJD3ayF-33">
          <mxGeometry width="36" height="22" as="geometry">
            <mxRectangle width="36" height="22" as="alternateBounds" />
          </mxGeometry>
        </mxCell>
        <mxCell id="yhX_cp5Toq69qGJD3ayF-35" value="Email" style="shape=partialRectangle;connectable=0;fillColor=none;top=0;left=0;bottom=0;right=0;align=left;spacingLeft=2;overflow=hidden;fontSize=11;" vertex="1" parent="yhX_cp5Toq69qGJD3ayF-33">
          <mxGeometry x="36" width="89" height="22" as="geometry">
            <mxRectangle width="89" height="22" as="alternateBounds" />
          </mxGeometry>
        </mxCell>
        <mxCell id="yhX_cp5Toq69qGJD3ayF-36" style="shape=tableRow;horizontal=0;startSize=0;swimlaneHead=0;swimlaneBody=0;fillColor=none;collapsible=0;dropTarget=0;points=[[0,0.5],[1,0.5]];portConstraint=eastwest;top=0;left=0;right=0;bottom=0;" vertex="1" parent="yhX_cp5Toq69qGJD3ayF-17">
          <mxGeometry y="157" width="125" height="22" as="geometry" />
        </mxCell>
        <mxCell id="yhX_cp5Toq69qGJD3ayF-37" value="date" style="shape=partialRectangle;connectable=0;fillColor=none;top=0;left=0;bottom=0;right=0;align=left;spacingLeft=2;overflow=hidden;fontSize=11;" vertex="1" parent="yhX_cp5Toq69qGJD3ayF-36">
          <mxGeometry width="36" height="22" as="geometry">
            <mxRectangle width="36" height="22" as="alternateBounds" />
          </mxGeometry>
        </mxCell>
        <mxCell id="yhX_cp5Toq69qGJD3ayF-38" value="HireDate" style="shape=partialRectangle;connectable=0;fillColor=none;top=0;left=0;bottom=0;right=0;align=left;spacingLeft=2;overflow=hidden;fontSize=11;" vertex="1" parent="yhX_cp5Toq69qGJD3ayF-36">
          <mxGeometry x="36" width="89" height="22" as="geometry">
            <mxRectangle width="89" height="22" as="alternateBounds" />
          </mxGeometry>
        </mxCell>
        <mxCell id="yhX_cp5Toq69qGJD3ayF-39" style="shape=tableRow;horizontal=0;startSize=0;swimlaneHead=0;swimlaneBody=0;fillColor=none;collapsible=0;dropTarget=0;points=[[0,0.5],[1,0.5]];portConstraint=eastwest;top=0;left=0;right=0;bottom=0;" vertex="1" parent="yhX_cp5Toq69qGJD3ayF-17">
          <mxGeometry y="179" width="125" height="22" as="geometry" />
        </mxCell>
        <mxCell id="yhX_cp5Toq69qGJD3ayF-40" value="string" style="shape=partialRectangle;connectable=0;fillColor=none;top=0;left=0;bottom=0;right=0;align=left;spacingLeft=2;overflow=hidden;fontSize=11;" vertex="1" parent="yhX_cp5Toq69qGJD3ayF-39">
          <mxGeometry width="36" height="22" as="geometry">
            <mxRectangle width="36" height="22" as="alternateBounds" />
          </mxGeometry>
        </mxCell>
        <mxCell id="yhX_cp5Toq69qGJD3ayF-41" value="Skills" style="shape=partialRectangle;connectable=0;fillColor=none;top=0;left=0;bottom=0;right=0;align=left;spacingLeft=2;overflow=hidden;fontSize=11;" vertex="1" parent="yhX_cp5Toq69qGJD3ayF-39">
          <mxGeometry x="36" width="89" height="22" as="geometry">
            <mxRectangle width="89" height="22" as="alternateBounds" />
          </mxGeometry>
        </mxCell>
        <mxCell id="yhX_cp5Toq69qGJD3ayF-42" value="Skills" style="shape=table;startSize=25;container=1;collapsible=0;childLayout=tableLayout;fixedRows=1;rowLines=1;fontStyle=1;align=center;resizeLast=1;" vertex="1" parent="1">
          <mxGeometry x="85" y="64" width="121" height="113" as="geometry" />
        </mxCell>
        <mxCell id="yhX_cp5Toq69qGJD3ayF-43" style="shape=tableRow;horizontal=0;startSize=0;swimlaneHead=0;swimlaneBody=0;fillColor=none;collapsible=0;dropTarget=0;points=[[0,0.5],[1,0.5]];portConstraint=eastwest;top=0;left=0;right=0;bottom=0;" vertex="1" parent="yhX_cp5Toq69qGJD3ayF-42">
          <mxGeometry y="25" width="121" height="22" as="geometry" />
        </mxCell>
        <mxCell id="yhX_cp5Toq69qGJD3ayF-44" value="int" style="shape=partialRectangle;connectable=0;fillColor=none;top=0;left=0;bottom=0;right=0;align=left;spacingLeft=2;overflow=hidden;fontSize=11;" vertex="1" parent="yhX_cp5Toq69qGJD3ayF-43">
          <mxGeometry width="36" height="22" as="geometry">
            <mxRectangle width="36" height="22" as="alternateBounds" />
          </mxGeometry>
        </mxCell>
        <mxCell id="yhX_cp5Toq69qGJD3ayF-45" value="SkillID" style="shape=partialRectangle;connectable=0;fillColor=none;top=0;left=0;bottom=0;right=0;align=left;spacingLeft=2;overflow=hidden;fontSize=11;" vertex="1" parent="yhX_cp5Toq69qGJD3ayF-43">
          <mxGeometry x="36" width="85" height="22" as="geometry">
            <mxRectangle width="85" height="22" as="alternateBounds" />
          </mxGeometry>
        </mxCell>
        <mxCell id="yhX_cp5Toq69qGJD3ayF-46" style="shape=tableRow;horizontal=0;startSize=0;swimlaneHead=0;swimlaneBody=0;fillColor=none;collapsible=0;dropTarget=0;points=[[0,0.5],[1,0.5]];portConstraint=eastwest;top=0;left=0;right=0;bottom=0;" vertex="1" parent="yhX_cp5Toq69qGJD3ayF-42">
          <mxGeometry y="47" width="121" height="22" as="geometry" />
        </mxCell>
        <mxCell id="yhX_cp5Toq69qGJD3ayF-47" value="string" style="shape=partialRectangle;connectable=0;fillColor=none;top=0;left=0;bottom=0;right=0;align=left;spacingLeft=2;overflow=hidden;fontSize=11;" vertex="1" parent="yhX_cp5Toq69qGJD3ayF-46">
          <mxGeometry width="36" height="22" as="geometry">
            <mxRectangle width="36" height="22" as="alternateBounds" />
          </mxGeometry>
        </mxCell>
        <mxCell id="yhX_cp5Toq69qGJD3ayF-48" value="SkillName" style="shape=partialRectangle;connectable=0;fillColor=none;top=0;left=0;bottom=0;right=0;align=left;spacingLeft=2;overflow=hidden;fontSize=11;" vertex="1" parent="yhX_cp5Toq69qGJD3ayF-46">
          <mxGeometry x="36" width="85" height="22" as="geometry">
            <mxRectangle width="85" height="22" as="alternateBounds" />
          </mxGeometry>
        </mxCell>
        <mxCell id="yhX_cp5Toq69qGJD3ayF-49" style="shape=tableRow;horizontal=0;startSize=0;swimlaneHead=0;swimlaneBody=0;fillColor=none;collapsible=0;dropTarget=0;points=[[0,0.5],[1,0.5]];portConstraint=eastwest;top=0;left=0;right=0;bottom=0;" vertex="1" parent="yhX_cp5Toq69qGJD3ayF-42">
          <mxGeometry y="69" width="121" height="22" as="geometry" />
        </mxCell>
        <mxCell id="yhX_cp5Toq69qGJD3ayF-50" value="string" style="shape=partialRectangle;connectable=0;fillColor=none;top=0;left=0;bottom=0;right=0;align=left;spacingLeft=2;overflow=hidden;fontSize=11;" vertex="1" parent="yhX_cp5Toq69qGJD3ayF-49">
          <mxGeometry width="36" height="22" as="geometry">
            <mxRectangle width="36" height="22" as="alternateBounds" />
          </mxGeometry>
        </mxCell>
        <mxCell id="yhX_cp5Toq69qGJD3ayF-51" value="Description" style="shape=partialRectangle;connectable=0;fillColor=none;top=0;left=0;bottom=0;right=0;align=left;spacingLeft=2;overflow=hidden;fontSize=11;" vertex="1" parent="yhX_cp5Toq69qGJD3ayF-49">
          <mxGeometry x="36" width="85" height="22" as="geometry">
            <mxRectangle width="85" height="22" as="alternateBounds" />
          </mxGeometry>
        </mxCell>
        <mxCell id="yhX_cp5Toq69qGJD3ayF-52" style="shape=tableRow;horizontal=0;startSize=0;swimlaneHead=0;swimlaneBody=0;fillColor=none;collapsible=0;dropTarget=0;points=[[0,0.5],[1,0.5]];portConstraint=eastwest;top=0;left=0;right=0;bottom=0;" vertex="1" parent="yhX_cp5Toq69qGJD3ayF-42">
          <mxGeometry y="91" width="121" height="22" as="geometry" />
        </mxCell>
        <mxCell id="yhX_cp5Toq69qGJD3ayF-53" value="string" style="shape=partialRectangle;connectable=0;fillColor=none;top=0;left=0;bottom=0;right=0;align=left;spacingLeft=2;overflow=hidden;fontSize=11;" vertex="1" parent="yhX_cp5Toq69qGJD3ayF-52">
          <mxGeometry width="36" height="22" as="geometry">
            <mxRectangle width="36" height="22" as="alternateBounds" />
          </mxGeometry>
        </mxCell>
        <mxCell id="yhX_cp5Toq69qGJD3ayF-54" value="Category" style="shape=partialRectangle;connectable=0;fillColor=none;top=0;left=0;bottom=0;right=0;align=left;spacingLeft=2;overflow=hidden;fontSize=11;" vertex="1" parent="yhX_cp5Toq69qGJD3ayF-52">
          <mxGeometry x="36" width="85" height="22" as="geometry">
            <mxRectangle width="85" height="22" as="alternateBounds" />
          </mxGeometry>
        </mxCell>
        <mxCell id="yhX_cp5Toq69qGJD3ayF-68" value="EmployeeSkills" style="shape=table;startSize=25;container=1;collapsible=0;childLayout=tableLayout;fixedRows=1;rowLines=1;fontStyle=1;align=center;resizeLast=1;" vertex="1" parent="1">
          <mxGeometry x="272" y="320" width="149" height="135" as="geometry" />
        </mxCell>
        <mxCell id="yhX_cp5Toq69qGJD3ayF-69" style="shape=tableRow;horizontal=0;startSize=0;swimlaneHead=0;swimlaneBody=0;fillColor=none;collapsible=0;dropTarget=0;points=[[0,0.5],[1,0.5]];portConstraint=eastwest;top=0;left=0;right=0;bottom=0;" vertex="1" parent="yhX_cp5Toq69qGJD3ayF-68">
          <mxGeometry y="25" width="149" height="22" as="geometry" />
        </mxCell>
        <mxCell id="yhX_cp5Toq69qGJD3ayF-70" value="int" style="shape=partialRectangle;connectable=0;fillColor=none;top=0;left=0;bottom=0;right=0;align=left;spacingLeft=2;overflow=hidden;fontSize=11;" vertex="1" parent="yhX_cp5Toq69qGJD3ayF-69">
          <mxGeometry width="36" height="22" as="geometry">
            <mxRectangle width="36" height="22" as="alternateBounds" />
          </mxGeometry>
        </mxCell>
        <mxCell id="yhX_cp5Toq69qGJD3ayF-71" value="EmployeeSkillID" style="shape=partialRectangle;connectable=0;fillColor=none;top=0;left=0;bottom=0;right=0;align=left;spacingLeft=2;overflow=hidden;fontSize=11;" vertex="1" parent="yhX_cp5Toq69qGJD3ayF-69">
          <mxGeometry x="36" width="113" height="22" as="geometry">
            <mxRectangle width="113" height="22" as="alternateBounds" />
          </mxGeometry>
        </mxCell>
        <mxCell id="yhX_cp5Toq69qGJD3ayF-72" style="shape=tableRow;horizontal=0;startSize=0;swimlaneHead=0;swimlaneBody=0;fillColor=none;collapsible=0;dropTarget=0;points=[[0,0.5],[1,0.5]];portConstraint=eastwest;top=0;left=0;right=0;bottom=0;" vertex="1" parent="yhX_cp5Toq69qGJD3ayF-68">
          <mxGeometry y="47" width="149" height="22" as="geometry" />
        </mxCell>
        <mxCell id="yhX_cp5Toq69qGJD3ayF-73" value="int" style="shape=partialRectangle;connectable=0;fillColor=none;top=0;left=0;bottom=0;right=0;align=left;spacingLeft=2;overflow=hidden;fontSize=11;" vertex="1" parent="yhX_cp5Toq69qGJD3ayF-72">
          <mxGeometry width="36" height="22" as="geometry">
            <mxRectangle width="36" height="22" as="alternateBounds" />
          </mxGeometry>
        </mxCell>
        <mxCell id="yhX_cp5Toq69qGJD3ayF-74" value="EmployeeID" style="shape=partialRectangle;connectable=0;fillColor=none;top=0;left=0;bottom=0;right=0;align=left;spacingLeft=2;overflow=hidden;fontSize=11;" vertex="1" parent="yhX_cp5Toq69qGJD3ayF-72">
          <mxGeometry x="36" width="113" height="22" as="geometry">
            <mxRectangle width="113" height="22" as="alternateBounds" />
          </mxGeometry>
        </mxCell>
        <mxCell id="yhX_cp5Toq69qGJD3ayF-75" style="shape=tableRow;horizontal=0;startSize=0;swimlaneHead=0;swimlaneBody=0;fillColor=none;collapsible=0;dropTarget=0;points=[[0,0.5],[1,0.5]];portConstraint=eastwest;top=0;left=0;right=0;bottom=0;" vertex="1" parent="yhX_cp5Toq69qGJD3ayF-68">
          <mxGeometry y="69" width="149" height="22" as="geometry" />
        </mxCell>
        <mxCell id="yhX_cp5Toq69qGJD3ayF-76" value="int" style="shape=partialRectangle;connectable=0;fillColor=none;top=0;left=0;bottom=0;right=0;align=left;spacingLeft=2;overflow=hidden;fontSize=11;" vertex="1" parent="yhX_cp5Toq69qGJD3ayF-75">
          <mxGeometry width="36" height="22" as="geometry">
            <mxRectangle width="36" height="22" as="alternateBounds" />
          </mxGeometry>
        </mxCell>
        <mxCell id="yhX_cp5Toq69qGJD3ayF-77" value="SkillID" style="shape=partialRectangle;connectable=0;fillColor=none;top=0;left=0;bottom=0;right=0;align=left;spacingLeft=2;overflow=hidden;fontSize=11;" vertex="1" parent="yhX_cp5Toq69qGJD3ayF-75">
          <mxGeometry x="36" width="113" height="22" as="geometry">
            <mxRectangle width="113" height="22" as="alternateBounds" />
          </mxGeometry>
        </mxCell>
        <mxCell id="yhX_cp5Toq69qGJD3ayF-78" style="shape=tableRow;horizontal=0;startSize=0;swimlaneHead=0;swimlaneBody=0;fillColor=none;collapsible=0;dropTarget=0;points=[[0,0.5],[1,0.5]];portConstraint=eastwest;top=0;left=0;right=0;bottom=0;" vertex="1" parent="yhX_cp5Toq69qGJD3ayF-68">
          <mxGeometry y="91" width="149" height="22" as="geometry" />
        </mxCell>
        <mxCell id="yhX_cp5Toq69qGJD3ayF-79" value="string" style="shape=partialRectangle;connectable=0;fillColor=none;top=0;left=0;bottom=0;right=0;align=left;spacingLeft=2;overflow=hidden;fontSize=11;" vertex="1" parent="yhX_cp5Toq69qGJD3ayF-78">
          <mxGeometry width="36" height="22" as="geometry">
            <mxRectangle width="36" height="22" as="alternateBounds" />
          </mxGeometry>
        </mxCell>
        <mxCell id="yhX_cp5Toq69qGJD3ayF-80" value="ProficiencyLevel" style="shape=partialRectangle;connectable=0;fillColor=none;top=0;left=0;bottom=0;right=0;align=left;spacingLeft=2;overflow=hidden;fontSize=11;" vertex="1" parent="yhX_cp5Toq69qGJD3ayF-78">
          <mxGeometry x="36" width="113" height="22" as="geometry">
            <mxRectangle width="113" height="22" as="alternateBounds" />
          </mxGeometry>
        </mxCell>
        <mxCell id="yhX_cp5Toq69qGJD3ayF-81" style="shape=tableRow;horizontal=0;startSize=0;swimlaneHead=0;swimlaneBody=0;fillColor=none;collapsible=0;dropTarget=0;points=[[0,0.5],[1,0.5]];portConstraint=eastwest;top=0;left=0;right=0;bottom=0;" vertex="1" parent="yhX_cp5Toq69qGJD3ayF-68">
          <mxGeometry y="113" width="149" height="22" as="geometry" />
        </mxCell>
        <mxCell id="yhX_cp5Toq69qGJD3ayF-82" value="date" style="shape=partialRectangle;connectable=0;fillColor=none;top=0;left=0;bottom=0;right=0;align=left;spacingLeft=2;overflow=hidden;fontSize=11;" vertex="1" parent="yhX_cp5Toq69qGJD3ayF-81">
          <mxGeometry width="36" height="22" as="geometry">
            <mxRectangle width="36" height="22" as="alternateBounds" />
          </mxGeometry>
        </mxCell>
        <mxCell id="yhX_cp5Toq69qGJD3ayF-83" value="LastAssessedDate" style="shape=partialRectangle;connectable=0;fillColor=none;top=0;left=0;bottom=0;right=0;align=left;spacingLeft=2;overflow=hidden;fontSize=11;" vertex="1" parent="yhX_cp5Toq69qGJD3ayF-81">
          <mxGeometry x="36" width="113" height="22" as="geometry">
            <mxRectangle width="113" height="22" as="alternateBounds" />
          </mxGeometry>
        </mxCell>
        <mxCell id="yhX_cp5Toq69qGJD3ayF-84" value="Assessments" style="shape=table;startSize=25;container=1;collapsible=0;childLayout=tableLayout;fixedRows=1;rowLines=1;fontStyle=1;align=center;resizeLast=1;" vertex="1" parent="1">
          <mxGeometry x="521" y="320" width="144" height="135" as="geometry" />
        </mxCell>
        <mxCell id="yhX_cp5Toq69qGJD3ayF-85" style="shape=tableRow;horizontal=0;startSize=0;swimlaneHead=0;swimlaneBody=0;fillColor=none;collapsible=0;dropTarget=0;points=[[0,0.5],[1,0.5]];portConstraint=eastwest;top=0;left=0;right=0;bottom=0;" vertex="1" parent="yhX_cp5Toq69qGJD3ayF-84">
          <mxGeometry y="25" width="144" height="22" as="geometry" />
        </mxCell>
        <mxCell id="yhX_cp5Toq69qGJD3ayF-86" value="int" style="shape=partialRectangle;connectable=0;fillColor=none;top=0;left=0;bottom=0;right=0;align=left;spacingLeft=2;overflow=hidden;fontSize=11;" vertex="1" parent="yhX_cp5Toq69qGJD3ayF-85">
          <mxGeometry width="36" height="22" as="geometry">
            <mxRectangle width="36" height="22" as="alternateBounds" />
          </mxGeometry>
        </mxCell>
        <mxCell id="yhX_cp5Toq69qGJD3ayF-87" value="AssessmentID" style="shape=partialRectangle;connectable=0;fillColor=none;top=0;left=0;bottom=0;right=0;align=left;spacingLeft=2;overflow=hidden;fontSize=11;" vertex="1" parent="yhX_cp5Toq69qGJD3ayF-85">
          <mxGeometry x="36" width="108" height="22" as="geometry">
            <mxRectangle width="108" height="22" as="alternateBounds" />
          </mxGeometry>
        </mxCell>
        <mxCell id="yhX_cp5Toq69qGJD3ayF-88" style="shape=tableRow;horizontal=0;startSize=0;swimlaneHead=0;swimlaneBody=0;fillColor=none;collapsible=0;dropTarget=0;points=[[0,0.5],[1,0.5]];portConstraint=eastwest;top=0;left=0;right=0;bottom=0;" vertex="1" parent="yhX_cp5Toq69qGJD3ayF-84">
          <mxGeometry y="47" width="144" height="22" as="geometry" />
        </mxCell>
        <mxCell id="yhX_cp5Toq69qGJD3ayF-89" value="int" style="shape=partialRectangle;connectable=0;fillColor=none;top=0;left=0;bottom=0;right=0;align=left;spacingLeft=2;overflow=hidden;fontSize=11;" vertex="1" parent="yhX_cp5Toq69qGJD3ayF-88">
          <mxGeometry width="36" height="22" as="geometry">
            <mxRectangle width="36" height="22" as="alternateBounds" />
          </mxGeometry>
        </mxCell>
        <mxCell id="yhX_cp5Toq69qGJD3ayF-90" value="EmployeeID" style="shape=partialRectangle;connectable=0;fillColor=none;top=0;left=0;bottom=0;right=0;align=left;spacingLeft=2;overflow=hidden;fontSize=11;" vertex="1" parent="yhX_cp5Toq69qGJD3ayF-88">
          <mxGeometry x="36" width="108" height="22" as="geometry">
            <mxRectangle width="108" height="22" as="alternateBounds" />
          </mxGeometry>
        </mxCell>
        <mxCell id="yhX_cp5Toq69qGJD3ayF-91" style="shape=tableRow;horizontal=0;startSize=0;swimlaneHead=0;swimlaneBody=0;fillColor=none;collapsible=0;dropTarget=0;points=[[0,0.5],[1,0.5]];portConstraint=eastwest;top=0;left=0;right=0;bottom=0;" vertex="1" parent="yhX_cp5Toq69qGJD3ayF-84">
          <mxGeometry y="69" width="144" height="22" as="geometry" />
        </mxCell>
        <mxCell id="yhX_cp5Toq69qGJD3ayF-92" value="date" style="shape=partialRectangle;connectable=0;fillColor=none;top=0;left=0;bottom=0;right=0;align=left;spacingLeft=2;overflow=hidden;fontSize=11;" vertex="1" parent="yhX_cp5Toq69qGJD3ayF-91">
          <mxGeometry width="36" height="22" as="geometry">
            <mxRectangle width="36" height="22" as="alternateBounds" />
          </mxGeometry>
        </mxCell>
        <mxCell id="yhX_cp5Toq69qGJD3ayF-93" value="AssessmentDate" style="shape=partialRectangle;connectable=0;fillColor=none;top=0;left=0;bottom=0;right=0;align=left;spacingLeft=2;overflow=hidden;fontSize=11;" vertex="1" parent="yhX_cp5Toq69qGJD3ayF-91">
          <mxGeometry x="36" width="108" height="22" as="geometry">
            <mxRectangle width="108" height="22" as="alternateBounds" />
          </mxGeometry>
        </mxCell>
        <mxCell id="yhX_cp5Toq69qGJD3ayF-94" style="shape=tableRow;horizontal=0;startSize=0;swimlaneHead=0;swimlaneBody=0;fillColor=none;collapsible=0;dropTarget=0;points=[[0,0.5],[1,0.5]];portConstraint=eastwest;top=0;left=0;right=0;bottom=0;" vertex="1" parent="yhX_cp5Toq69qGJD3ayF-84">
          <mxGeometry y="91" width="144" height="22" as="geometry" />
        </mxCell>
        <mxCell id="yhX_cp5Toq69qGJD3ayF-95" value="int" style="shape=partialRectangle;connectable=0;fillColor=none;top=0;left=0;bottom=0;right=0;align=left;spacingLeft=2;overflow=hidden;fontSize=11;" vertex="1" parent="yhX_cp5Toq69qGJD3ayF-94">
          <mxGeometry width="36" height="22" as="geometry">
            <mxRectangle width="36" height="22" as="alternateBounds" />
          </mxGeometry>
        </mxCell>
        <mxCell id="yhX_cp5Toq69qGJD3ayF-96" value="Score" style="shape=partialRectangle;connectable=0;fillColor=none;top=0;left=0;bottom=0;right=0;align=left;spacingLeft=2;overflow=hidden;fontSize=11;" vertex="1" parent="yhX_cp5Toq69qGJD3ayF-94">
          <mxGeometry x="36" width="108" height="22" as="geometry">
            <mxRectangle width="108" height="22" as="alternateBounds" />
          </mxGeometry>
        </mxCell>
        <mxCell id="yhX_cp5Toq69qGJD3ayF-97" style="shape=tableRow;horizontal=0;startSize=0;swimlaneHead=0;swimlaneBody=0;fillColor=none;collapsible=0;dropTarget=0;points=[[0,0.5],[1,0.5]];portConstraint=eastwest;top=0;left=0;right=0;bottom=0;" vertex="1" parent="yhX_cp5Toq69qGJD3ayF-84">
          <mxGeometry y="113" width="144" height="22" as="geometry" />
        </mxCell>
        <mxCell id="yhX_cp5Toq69qGJD3ayF-98" value="string" style="shape=partialRectangle;connectable=0;fillColor=none;top=0;left=0;bottom=0;right=0;align=left;spacingLeft=2;overflow=hidden;fontSize=11;" vertex="1" parent="yhX_cp5Toq69qGJD3ayF-97">
          <mxGeometry width="36" height="22" as="geometry">
            <mxRectangle width="36" height="22" as="alternateBounds" />
          </mxGeometry>
        </mxCell>
        <mxCell id="yhX_cp5Toq69qGJD3ayF-99" value="Comments" style="shape=partialRectangle;connectable=0;fillColor=none;top=0;left=0;bottom=0;right=0;align=left;spacingLeft=2;overflow=hidden;fontSize=11;" vertex="1" parent="yhX_cp5Toq69qGJD3ayF-97">
          <mxGeometry x="36" width="108" height="22" as="geometry">
            <mxRectangle width="108" height="22" as="alternateBounds" />
          </mxGeometry>
        </mxCell>
        <mxCell id="yhX_cp5Toq69qGJD3ayF-100" value="Feedback" style="shape=table;startSize=25;container=1;collapsible=0;childLayout=tableLayout;fixedRows=1;rowLines=1;fontStyle=1;align=center;resizeLast=1;" vertex="1" parent="1">
          <mxGeometry x="527" y="554" width="133" height="135" as="geometry" />
        </mxCell>
        <mxCell id="yhX_cp5Toq69qGJD3ayF-101" style="shape=tableRow;horizontal=0;startSize=0;swimlaneHead=0;swimlaneBody=0;fillColor=none;collapsible=0;dropTarget=0;points=[[0,0.5],[1,0.5]];portConstraint=eastwest;top=0;left=0;right=0;bottom=0;" vertex="1" parent="yhX_cp5Toq69qGJD3ayF-100">
          <mxGeometry y="25" width="133" height="22" as="geometry" />
        </mxCell>
        <mxCell id="yhX_cp5Toq69qGJD3ayF-102" value="int" style="shape=partialRectangle;connectable=0;fillColor=none;top=0;left=0;bottom=0;right=0;align=left;spacingLeft=2;overflow=hidden;fontSize=11;" vertex="1" parent="yhX_cp5Toq69qGJD3ayF-101">
          <mxGeometry width="36" height="22" as="geometry">
            <mxRectangle width="36" height="22" as="alternateBounds" />
          </mxGeometry>
        </mxCell>
        <mxCell id="yhX_cp5Toq69qGJD3ayF-103" value="FeedbackID" style="shape=partialRectangle;connectable=0;fillColor=none;top=0;left=0;bottom=0;right=0;align=left;spacingLeft=2;overflow=hidden;fontSize=11;" vertex="1" parent="yhX_cp5Toq69qGJD3ayF-101">
          <mxGeometry x="36" width="97" height="22" as="geometry">
            <mxRectangle width="97" height="22" as="alternateBounds" />
          </mxGeometry>
        </mxCell>
        <mxCell id="yhX_cp5Toq69qGJD3ayF-104" style="shape=tableRow;horizontal=0;startSize=0;swimlaneHead=0;swimlaneBody=0;fillColor=none;collapsible=0;dropTarget=0;points=[[0,0.5],[1,0.5]];portConstraint=eastwest;top=0;left=0;right=0;bottom=0;" vertex="1" parent="yhX_cp5Toq69qGJD3ayF-100">
          <mxGeometry y="47" width="133" height="22" as="geometry" />
        </mxCell>
        <mxCell id="yhX_cp5Toq69qGJD3ayF-105" value="int" style="shape=partialRectangle;connectable=0;fillColor=none;top=0;left=0;bottom=0;right=0;align=left;spacingLeft=2;overflow=hidden;fontSize=11;" vertex="1" parent="yhX_cp5Toq69qGJD3ayF-104">
          <mxGeometry width="36" height="22" as="geometry">
            <mxRectangle width="36" height="22" as="alternateBounds" />
          </mxGeometry>
        </mxCell>
        <mxCell id="yhX_cp5Toq69qGJD3ayF-106" value="AssessmentID" style="shape=partialRectangle;connectable=0;fillColor=none;top=0;left=0;bottom=0;right=0;align=left;spacingLeft=2;overflow=hidden;fontSize=11;" vertex="1" parent="yhX_cp5Toq69qGJD3ayF-104">
          <mxGeometry x="36" width="97" height="22" as="geometry">
            <mxRectangle width="97" height="22" as="alternateBounds" />
          </mxGeometry>
        </mxCell>
        <mxCell id="yhX_cp5Toq69qGJD3ayF-107" style="shape=tableRow;horizontal=0;startSize=0;swimlaneHead=0;swimlaneBody=0;fillColor=none;collapsible=0;dropTarget=0;points=[[0,0.5],[1,0.5]];portConstraint=eastwest;top=0;left=0;right=0;bottom=0;" vertex="1" parent="yhX_cp5Toq69qGJD3ayF-100">
          <mxGeometry y="69" width="133" height="22" as="geometry" />
        </mxCell>
        <mxCell id="yhX_cp5Toq69qGJD3ayF-108" value="int" style="shape=partialRectangle;connectable=0;fillColor=none;top=0;left=0;bottom=0;right=0;align=left;spacingLeft=2;overflow=hidden;fontSize=11;" vertex="1" parent="yhX_cp5Toq69qGJD3ayF-107">
          <mxGeometry width="36" height="22" as="geometry">
            <mxRectangle width="36" height="22" as="alternateBounds" />
          </mxGeometry>
        </mxCell>
        <mxCell id="yhX_cp5Toq69qGJD3ayF-109" value="ReviewerID" style="shape=partialRectangle;connectable=0;fillColor=none;top=0;left=0;bottom=0;right=0;align=left;spacingLeft=2;overflow=hidden;fontSize=11;" vertex="1" parent="yhX_cp5Toq69qGJD3ayF-107">
          <mxGeometry x="36" width="97" height="22" as="geometry">
            <mxRectangle width="97" height="22" as="alternateBounds" />
          </mxGeometry>
        </mxCell>
        <mxCell id="yhX_cp5Toq69qGJD3ayF-110" style="shape=tableRow;horizontal=0;startSize=0;swimlaneHead=0;swimlaneBody=0;fillColor=none;collapsible=0;dropTarget=0;points=[[0,0.5],[1,0.5]];portConstraint=eastwest;top=0;left=0;right=0;bottom=0;" vertex="1" parent="yhX_cp5Toq69qGJD3ayF-100">
          <mxGeometry y="91" width="133" height="22" as="geometry" />
        </mxCell>
        <mxCell id="yhX_cp5Toq69qGJD3ayF-111" value="string" style="shape=partialRectangle;connectable=0;fillColor=none;top=0;left=0;bottom=0;right=0;align=left;spacingLeft=2;overflow=hidden;fontSize=11;" vertex="1" parent="yhX_cp5Toq69qGJD3ayF-110">
          <mxGeometry width="36" height="22" as="geometry">
            <mxRectangle width="36" height="22" as="alternateBounds" />
          </mxGeometry>
        </mxCell>
        <mxCell id="yhX_cp5Toq69qGJD3ayF-112" value="FeedbackText" style="shape=partialRectangle;connectable=0;fillColor=none;top=0;left=0;bottom=0;right=0;align=left;spacingLeft=2;overflow=hidden;fontSize=11;" vertex="1" parent="yhX_cp5Toq69qGJD3ayF-110">
          <mxGeometry x="36" width="97" height="22" as="geometry">
            <mxRectangle width="97" height="22" as="alternateBounds" />
          </mxGeometry>
        </mxCell>
        <mxCell id="yhX_cp5Toq69qGJD3ayF-113" style="shape=tableRow;horizontal=0;startSize=0;swimlaneHead=0;swimlaneBody=0;fillColor=none;collapsible=0;dropTarget=0;points=[[0,0.5],[1,0.5]];portConstraint=eastwest;top=0;left=0;right=0;bottom=0;" vertex="1" parent="yhX_cp5Toq69qGJD3ayF-100">
          <mxGeometry y="113" width="133" height="22" as="geometry" />
        </mxCell>
        <mxCell id="yhX_cp5Toq69qGJD3ayF-114" value="int" style="shape=partialRectangle;connectable=0;fillColor=none;top=0;left=0;bottom=0;right=0;align=left;spacingLeft=2;overflow=hidden;fontSize=11;" vertex="1" parent="yhX_cp5Toq69qGJD3ayF-113">
          <mxGeometry width="36" height="22" as="geometry">
            <mxRectangle width="36" height="22" as="alternateBounds" />
          </mxGeometry>
        </mxCell>
        <mxCell id="yhX_cp5Toq69qGJD3ayF-115" value="Rating" style="shape=partialRectangle;connectable=0;fillColor=none;top=0;left=0;bottom=0;right=0;align=left;spacingLeft=2;overflow=hidden;fontSize=11;" vertex="1" parent="yhX_cp5Toq69qGJD3ayF-113">
          <mxGeometry x="36" width="97" height="22" as="geometry">
            <mxRectangle width="97" height="22" as="alternateBounds" />
          </mxGeometry>
        </mxCell>
        <mxCell id="yhX_cp5Toq69qGJD3ayF-116" value="DevelopmentPlans" style="shape=table;startSize=25;container=1;collapsible=0;childLayout=tableLayout;fixedRows=1;rowLines=1;fontStyle=1;align=center;resizeLast=1;" vertex="1" parent="1">
          <mxGeometry x="765" y="320" width="159" height="135" as="geometry" />
        </mxCell>
        <mxCell id="yhX_cp5Toq69qGJD3ayF-117" style="shape=tableRow;horizontal=0;startSize=0;swimlaneHead=0;swimlaneBody=0;fillColor=none;collapsible=0;dropTarget=0;points=[[0,0.5],[1,0.5]];portConstraint=eastwest;top=0;left=0;right=0;bottom=0;" vertex="1" parent="yhX_cp5Toq69qGJD3ayF-116">
          <mxGeometry y="25" width="159" height="22" as="geometry" />
        </mxCell>
        <mxCell id="yhX_cp5Toq69qGJD3ayF-118" value="int" style="shape=partialRectangle;connectable=0;fillColor=none;top=0;left=0;bottom=0;right=0;align=left;spacingLeft=2;overflow=hidden;fontSize=11;" vertex="1" parent="yhX_cp5Toq69qGJD3ayF-117">
          <mxGeometry width="36" height="22" as="geometry">
            <mxRectangle width="36" height="22" as="alternateBounds" />
          </mxGeometry>
        </mxCell>
        <mxCell id="yhX_cp5Toq69qGJD3ayF-119" value="DevelopmentPlanID" style="shape=partialRectangle;connectable=0;fillColor=none;top=0;left=0;bottom=0;right=0;align=left;spacingLeft=2;overflow=hidden;fontSize=11;" vertex="1" parent="yhX_cp5Toq69qGJD3ayF-117">
          <mxGeometry x="36" width="123" height="22" as="geometry">
            <mxRectangle width="123" height="22" as="alternateBounds" />
          </mxGeometry>
        </mxCell>
        <mxCell id="yhX_cp5Toq69qGJD3ayF-120" style="shape=tableRow;horizontal=0;startSize=0;swimlaneHead=0;swimlaneBody=0;fillColor=none;collapsible=0;dropTarget=0;points=[[0,0.5],[1,0.5]];portConstraint=eastwest;top=0;left=0;right=0;bottom=0;" vertex="1" parent="yhX_cp5Toq69qGJD3ayF-116">
          <mxGeometry y="47" width="159" height="22" as="geometry" />
        </mxCell>
        <mxCell id="yhX_cp5Toq69qGJD3ayF-121" value="int" style="shape=partialRectangle;connectable=0;fillColor=none;top=0;left=0;bottom=0;right=0;align=left;spacingLeft=2;overflow=hidden;fontSize=11;" vertex="1" parent="yhX_cp5Toq69qGJD3ayF-120">
          <mxGeometry width="36" height="22" as="geometry">
            <mxRectangle width="36" height="22" as="alternateBounds" />
          </mxGeometry>
        </mxCell>
        <mxCell id="yhX_cp5Toq69qGJD3ayF-122" value="EmployeeID" style="shape=partialRectangle;connectable=0;fillColor=none;top=0;left=0;bottom=0;right=0;align=left;spacingLeft=2;overflow=hidden;fontSize=11;" vertex="1" parent="yhX_cp5Toq69qGJD3ayF-120">
          <mxGeometry x="36" width="123" height="22" as="geometry">
            <mxRectangle width="123" height="22" as="alternateBounds" />
          </mxGeometry>
        </mxCell>
        <mxCell id="yhX_cp5Toq69qGJD3ayF-123" style="shape=tableRow;horizontal=0;startSize=0;swimlaneHead=0;swimlaneBody=0;fillColor=none;collapsible=0;dropTarget=0;points=[[0,0.5],[1,0.5]];portConstraint=eastwest;top=0;left=0;right=0;bottom=0;" vertex="1" parent="yhX_cp5Toq69qGJD3ayF-116">
          <mxGeometry y="69" width="159" height="22" as="geometry" />
        </mxCell>
        <mxCell id="yhX_cp5Toq69qGJD3ayF-124" value="string" style="shape=partialRectangle;connectable=0;fillColor=none;top=0;left=0;bottom=0;right=0;align=left;spacingLeft=2;overflow=hidden;fontSize=11;" vertex="1" parent="yhX_cp5Toq69qGJD3ayF-123">
          <mxGeometry width="36" height="22" as="geometry">
            <mxRectangle width="36" height="22" as="alternateBounds" />
          </mxGeometry>
        </mxCell>
        <mxCell id="yhX_cp5Toq69qGJD3ayF-125" value="GoalDescription" style="shape=partialRectangle;connectable=0;fillColor=none;top=0;left=0;bottom=0;right=0;align=left;spacingLeft=2;overflow=hidden;fontSize=11;" vertex="1" parent="yhX_cp5Toq69qGJD3ayF-123">
          <mxGeometry x="36" width="123" height="22" as="geometry">
            <mxRectangle width="123" height="22" as="alternateBounds" />
          </mxGeometry>
        </mxCell>
        <mxCell id="yhX_cp5Toq69qGJD3ayF-126" style="shape=tableRow;horizontal=0;startSize=0;swimlaneHead=0;swimlaneBody=0;fillColor=none;collapsible=0;dropTarget=0;points=[[0,0.5],[1,0.5]];portConstraint=eastwest;top=0;left=0;right=0;bottom=0;" vertex="1" parent="yhX_cp5Toq69qGJD3ayF-116">
          <mxGeometry y="91" width="159" height="22" as="geometry" />
        </mxCell>
        <mxCell id="yhX_cp5Toq69qGJD3ayF-127" value="date" style="shape=partialRectangle;connectable=0;fillColor=none;top=0;left=0;bottom=0;right=0;align=left;spacingLeft=2;overflow=hidden;fontSize=11;" vertex="1" parent="yhX_cp5Toq69qGJD3ayF-126">
          <mxGeometry width="36" height="22" as="geometry">
            <mxRectangle width="36" height="22" as="alternateBounds" />
          </mxGeometry>
        </mxCell>
        <mxCell id="yhX_cp5Toq69qGJD3ayF-128" value="TargetDate" style="shape=partialRectangle;connectable=0;fillColor=none;top=0;left=0;bottom=0;right=0;align=left;spacingLeft=2;overflow=hidden;fontSize=11;" vertex="1" parent="yhX_cp5Toq69qGJD3ayF-126">
          <mxGeometry x="36" width="123" height="22" as="geometry">
            <mxRectangle width="123" height="22" as="alternateBounds" />
          </mxGeometry>
        </mxCell>
        <mxCell id="yhX_cp5Toq69qGJD3ayF-129" style="shape=tableRow;horizontal=0;startSize=0;swimlaneHead=0;swimlaneBody=0;fillColor=none;collapsible=0;dropTarget=0;points=[[0,0.5],[1,0.5]];portConstraint=eastwest;top=0;left=0;right=0;bottom=0;" vertex="1" parent="yhX_cp5Toq69qGJD3ayF-116">
          <mxGeometry y="113" width="159" height="22" as="geometry" />
        </mxCell>
        <mxCell id="yhX_cp5Toq69qGJD3ayF-130" value="string" style="shape=partialRectangle;connectable=0;fillColor=none;top=0;left=0;bottom=0;right=0;align=left;spacingLeft=2;overflow=hidden;fontSize=11;" vertex="1" parent="yhX_cp5Toq69qGJD3ayF-129">
          <mxGeometry width="36" height="22" as="geometry">
            <mxRectangle width="36" height="22" as="alternateBounds" />
          </mxGeometry>
        </mxCell>
        <mxCell id="yhX_cp5Toq69qGJD3ayF-131" value="Status" style="shape=partialRectangle;connectable=0;fillColor=none;top=0;left=0;bottom=0;right=0;align=left;spacingLeft=2;overflow=hidden;fontSize=11;" vertex="1" parent="yhX_cp5Toq69qGJD3ayF-129">
          <mxGeometry x="36" width="123" height="22" as="geometry">
            <mxRectangle width="123" height="22" as="alternateBounds" />
          </mxGeometry>
        </mxCell>
        <mxCell id="yhX_cp5Toq69qGJD3ayF-132" value="has" style="curved=1;startArrow=ERmandOne;startSize=10;;endArrow=ERmany;endSize=10;;exitX=0;exitY=0.77;entryX=0.78;entryY=0;rounded=0;" edge="1" parent="1" source="yhX_cp5Toq69qGJD3ayF-17" target="yhX_cp5Toq69qGJD3ayF-68">
          <mxGeometry relative="1" as="geometry">
            <Array as="points">
              <mxPoint x="420" y="270" />
            </Array>
          </mxGeometry>
        </mxCell>
        <mxCell id="yhX_cp5Toq69qGJD3ayF-134" value="has" style="curved=1;startArrow=ERmandOne;startSize=10;;endArrow=ERmany;endSize=10;;exitX=0.5;exitY=1;entryX=0.5;entryY=0;rounded=0;" edge="1" parent="1" source="yhX_cp5Toq69qGJD3ayF-17" target="yhX_cp5Toq69qGJD3ayF-84">
          <mxGeometry relative="1" as="geometry">
            <Array as="points" />
          </mxGeometry>
        </mxCell>
        <mxCell id="yhX_cp5Toq69qGJD3ayF-135" value="has" style="curved=1;startArrow=ERmandOne;startSize=10;;endArrow=ERmany;endSize=10;;exitX=0.5;exitY=1;entryX=0.5;entryY=0;rounded=0;" edge="1" parent="1" source="yhX_cp5Toq69qGJD3ayF-84" target="yhX_cp5Toq69qGJD3ayF-100">
          <mxGeometry relative="1" as="geometry">
            <Array as="points" />
          </mxGeometry>
        </mxCell>
        <mxCell id="yhX_cp5Toq69qGJD3ayF-136" value="has" style="curved=1;startArrow=ERmandOne;startSize=10;;endArrow=ERmany;endSize=10;;exitX=1;exitY=0.69;entryX=0.5;entryY=0;rounded=0;" edge="1" parent="1" source="yhX_cp5Toq69qGJD3ayF-17" target="yhX_cp5Toq69qGJD3ayF-116">
          <mxGeometry relative="1" as="geometry">
            <Array as="points">
              <mxPoint x="844" y="270" />
            </Array>
          </mxGeometry>
        </mxCell>
        <mxCell id="yhX_cp5Toq69qGJD3ayF-137" value="has" style="curved=1;startArrow=ERmandOne;startSize=10;;endArrow=ERmany;endSize=10;;exitX=0.89;exitY=1;entryX=0.21;entryY=0;rounded=0;" edge="1" parent="1" source="yhX_cp5Toq69qGJD3ayF-42" target="yhX_cp5Toq69qGJD3ayF-68">
          <mxGeometry relative="1" as="geometry">
            <Array as="points">
              <mxPoint x="271" y="270" />
            </Array>
          </mxGeometry>
        </mxCell>
      </root>
    </mxGraphModel>
  </diagram>
</mxfile>
